<svg xmlns="http://www.w3.org/2000/svg" viewBox="0 0 120.87 32.75"><defs><style>.cls-1{fill:#fdc704;}.cls-1,.cls-2,.cls-3{stroke:#fff;stroke-miterlimit:10;stroke-width:0.75px;}.cls-2{fill:#fa7099;}.cls-3{fill:#4cba89;}</style></defs><title>new7</title><g id="Layer_2" data-name="Layer 2"><g id="Layer_1-2" data-name="Layer 1"><path class="cls-1" d="M35.06,21.53a9,9,0,0,0,4.72,1.34,8.86,8.86,0,0,0,6.9-3.2,10,10,0,0,0,2.26-6.85V5.14a5.46,5.46,0,0,0-.84-3.46A3.52,3.52,0,0,0,45.29.38a3.41,3.41,0,0,0-2.77,1.33,3.13,3.13,0,0,0-.69,1.34,12.08,12.08,0,0,0-.06,1.55v8.66c0,1.6-.66,2.39-2,2.39s-2-.82-2-2.48V4.61a4.35,4.35,0,0,0-.94-3.1A3.48,3.48,0,0,0,34.22.38a3.44,3.44,0,0,0-2.84,1.4,3.42,3.42,0,0,0-.7,1.59,16.24,16.24,0,0,0-.06,1.77v7.68a11.88,11.88,0,0,0,.51,3.84A9,9,0,0,0,35.06,21.53Z"/><path class="cls-2" d="M51.29,19.39a3.28,3.28,0,0,0,.88,1.67,4,4,0,0,0,3.06,1.07h5.71a12.56,12.56,0,0,0,2.81-.23,5.67,5.67,0,0,0,2.4-1.37,6.22,6.22,0,0,0,2.2-4.86,6.78,6.78,0,0,0-.65-2.94A8.24,8.24,0,0,0,66,10.5a6.82,6.82,0,0,0,1-3.36,6.82,6.82,0,0,0-1.1-3.76A6.13,6.13,0,0,0,62,.65,18.25,18.25,0,0,0,58.2.38h-1c-1.31,0-2.06,0-2.26,0a4.36,4.36,0,0,0-2.15.6,3.35,3.35,0,0,0-1.6,3l0,13.39A14.86,14.86,0,0,0,51.29,19.39Z"/><path class="cls-1" d="M85.34,7h3.88l-6.73,9.62a3.6,3.6,0,0,0-.68,2.1,3.21,3.21,0,0,0,1.3,2.71,2.67,2.67,0,0,0,1,.42l1.23.25,12.38,0a6.5,6.5,0,0,0,1.14-.73,3.2,3.2,0,0,0,1.23-2.65,3.16,3.16,0,0,0-1.34-2.68,3.22,3.22,0,0,0-1.05-.52,6.71,6.71,0,0,0-1.91-.21h-3.6l6.45-9.14a4.62,4.62,0,0,0,1-2.51,2.85,2.85,0,0,0-1.39-2.64,5.76,5.76,0,0,0-3-.68H85.66a4.39,4.39,0,0,0-2.74.8,3,3,0,0,0-1.14,2.53,3.1,3.1,0,0,0,1,2.44A3.65,3.65,0,0,0,85.34,7Z"/><path class="cls-3" d="M74.86,22.44a3.2,3.2,0,0,0,2.69-1.24,4.46,4.46,0,0,0,.91-2.89V4.82a4.84,4.84,0,0,0-.94-3.3A3.44,3.44,0,0,0,74.86.38,3.39,3.39,0,0,0,72.2,1.54a4.83,4.83,0,0,0-.91,3.28V18.31a4.21,4.21,0,0,0,.91,3A3.51,3.51,0,0,0,74.86,22.44Z"/><path class="cls-2" d="M105.71,7h3.87l-6.73,9.62a3.6,3.6,0,0,0-.68,2.1,3.21,3.21,0,0,0,1.3,2.71,2.67,2.67,0,0,0,1,.42l1.23.25,12.38,0a6.5,6.5,0,0,0,1.14-.73,3.2,3.2,0,0,0,1.23-2.65,3.16,3.16,0,0,0-1.34-2.68,3.22,3.22,0,0,0-1.05-.52,6.71,6.71,0,0,0-1.91-.21h-3.6L119,6.21a4.62,4.62,0,0,0,1-2.51,2.85,2.85,0,0,0-1.39-2.64,5.73,5.73,0,0,0-3-.68H106a4.39,4.39,0,0,0-2.74.8,3,3,0,0,0-1.14,2.53,3.1,3.1,0,0,0,1,2.44A3.68,3.68,0,0,0,105.71,7Z"/><path class="cls-3" d="M119.25,26.12a4.46,4.46,0,0,0-2.89-.91H8.44l2.11-9.59L12,19.51q1.08,2.93,3.64,2.93t3.68-3l1.42-3.86.8,4.08a3.18,3.18,0,0,0,1.24,2,3.77,3.77,0,0,0,2.31.73,3.44,3.44,0,0,0,2.51-1,3.31,3.31,0,0,0,1-2.47,7.3,7.3,0,0,0-.11-1.23L26,3.72C25.61,1.49,24.42.38,22.42.38a3.2,3.2,0,0,0-3.17,1.91L15.63,10,12.42,2.76A4.06,4.06,0,0,0,11,1,3.78,3.78,0,0,0,8.81.38a3.15,3.15,0,0,0-2.38,1A4.25,4.25,0,0,0,5.28,3.72L.45,27.6a5.19,5.19,0,0,0-.07.87,1.48,1.48,0,0,0,0,.21s0,.08,0,.13a3.39,3.39,0,0,0,1.16,2.66l.05,0A3.46,3.46,0,0,0,4,32.38l.3,0c.17,0,.33,0,.51,0H116.36a4.26,4.26,0,0,0,3-.91,3.51,3.51,0,0,0,1.16-2.66A3.2,3.2,0,0,0,119.25,26.12Z"/></g></g></svg>